                                            <svg xmlns="http://www.w3.org/2000/svg" version="1.0" stroke="2px" fill="currentColor" viewBox="0 0 512.000000 512.000000" preserveAspectRatio="xMidYMid meet">
                                                <g transform="translate(0.000000,512.000000) scale(0.100000,-0.100000)">
                                                    <path d="M2420 5113 c-76 -8 -199 -35 -286 -64 -188 -61 -353 -161 -502 -303 -208 -199 -339 -433 -403 -724 -20 -90 -22 -132 -26 -587 l-5 -491 -64 -17 c-105 -27 -173 -66 -250 -142 -75 -74 -118 -146 -151 -251 -17 -56 -18 -117 -18 -1059 l0 -1000 22 -70 c31 -98 88 -188 160 -254 77 -72 140 -106 239 -131 75 -19 115 -20 1424 -20 1309 0 1349 1 1424 20 100 25 165 61 241 131 71 67 127 157 158 254 l22 70 0 995 c0 920 -1 1000 -18 1059 -54 197 -219 359 -409 401 l-56 13 -5 486 c-5 531 -8 559 -68 748 -156 487 -582 853 -1081 927 -95 14 -257 19 -348 9z m364 -229 c413 -78 770 -418 875 -831 35 -137 41 -236 41 -680 l0 -433 -119 0 -120 0 -3 483 c-4 461 -5 486 -26 562 -77 278 -275 510 -527 614 -116 49 -196 64 -335 65 -143 1 -238 -17 -360 -68 -264 -112 -472 -366 -531 -650 -17 -81 -19 -140 -19 -548 l0 -458 -120 0 -120 0 0 448 c0 246 5 479 10 517 37 258 150 485 330 665 271 272 643 386 1024 314z m-79 -449 c90 -19 214 -79 286 -138 72 -59 143 -152 185 -244 62 -132 64 -150 64 -655 l0 -458 -680 0 -680 0 0 458 c0 513 2 527 70 668 46 95 149 211 241 273 144 96 340 133 514 96z m1295 -1744 c70 -37 98 -61 135 -115 68 -102 66 -56 63 -1127 -3 -1111 5 -1018 -102 -1125 -44 -44 -77 -67 -119 -82 l-58 -22 -1354 0 -1354 0 -58 21 c-43 16 -74 37 -120 84 -52 53 -65 73 -83 131 -20 68 -20 80 -18 1039 l3 970 29 59 c44 91 122 158 216 187 14 4 644 7 1400 6 l1375 -2 45 -24z"></path>
                                                    <path d="M2434 1799 c-297 -102 -358 -491 -108 -682 27 -20 66 -42 87 -49 l37 -11 0 -164 c0 -182 7 -211 60 -238 37 -19 63 -19 101 1 50 25 59 64 59 241 l0 158 56 24 c76 33 147 105 187 188 29 62 32 77 32 163 0 86 -3 101 -32 162 -64 136 -188 219 -338 225 -62 3 -94 -1 -141 -18z m207 -215 c34 -17 77 -68 85 -100 11 -41 -2 -124 -23 -152 -36 -49 -70 -66 -136 -70 -52 -3 -67 0 -96 20 -67 45 -97 114 -81 185 26 112 148 169 251 117z"></path>
                                                </g>
                                            </svg>