<svg viewBox="0 0 489 136" fill="none" xmlns="http://www.w3.org/2000/svg"><g clip-path="url(#a)"><path fill="url(#b)" d="M-40-8h1127v288H-40z"/><path d="M494 153.778c0 87.261-54.739 135-142 135s-230-31.739-230-119 96.739-56 184-56 188-47.261 188 40Z" fill="url(#c)" fill-opacity=".1"/><path d="M223.66 20.4c22.585-84.287 87.814-116.232 172.102-93.648C480.05-50.663 609.71 16.94 587.125 101.226c-22.585 84.288-107.936 29.054-192.224 6.469-84.288-22.584-193.826-3.007-171.241-87.295Z" fill="url(#d)" fill-opacity=".1"/><g style="mix-blend-mode:overlay" opacity=".3"><path d="M75.81 7.003a12.433 12.433 0 0 0-8.445 3.62 12.372 12.372 0 0 0-3.637 8.421 12.221 12.221 0 0 0 2.318 7.515l.122.167 8.762 11.89a1.882 1.882 0 0 0 2.436.552c.268-.146.496-.356.664-.61l7.922-11.75c1.5-2.278 2.526-4.666 2.526-7.475a12.321 12.321 0 0 0-3.733-8.823 12.38 12.38 0 0 0-8.934-3.507Zm.29 19.654a7.06 7.06 0 0 1-3.913-1.188 7.033 7.033 0 0 1-2.593-3.155 7.014 7.014 0 0 1 1.531-7.658 7.063 7.063 0 0 1 7.679-1.521 7.044 7.044 0 0 1 3.162 2.588 7.011 7.011 0 0 1-.88 8.873 7.046 7.046 0 0 1-4.986 2.055v.006Z" fill="#31B0FF"/><path fill-rule="evenodd" clip-rule="evenodd" d="m75.603 38.559 7.922-11.752c1.5-2.277 2.526-4.665 2.526-7.474a12.321 12.321 0 0 0-3.733-8.823 12.38 12.38 0 0 0-8.934-3.507 12.433 12.433 0 0 0-8.446 3.62 12.372 12.372 0 0 0-3.637 8.421 12.221 12.221 0 0 0 2.318 7.515l.122.167 8.762 11.89a1.882 1.882 0 0 0 1.565.784 1.888 1.888 0 0 0 1.535-.841ZM64.327 26.294l.003.005 8.761 11.889.003.003a1.155 1.155 0 0 0 1.496.338c.164-.09.303-.218.407-.373l.001-.002 7.919-11.748.002-.003c1.454-2.207 2.404-4.454 2.404-7.07a11.592 11.592 0 0 0-3.513-8.301 11.654 11.654 0 0 0-8.408-3.3c-2.99.08-5.835 1.299-7.95 3.407a11.645 11.645 0 0 0-3.423 7.925 11.494 11.494 0 0 0 2.18 7.068l.118.162Zm10.075 1.091h-.73a7.787 7.787 0 0 1-4.316-1.31 7.76 7.76 0 0 1-2.861-3.482 7.74 7.74 0 0 1 1.69-8.453 7.79 7.79 0 0 1 8.47-1.678 7.771 7.771 0 0 1 3.489 2.856 7.745 7.745 0 0 1 1.31 4.31 7.744 7.744 0 0 1-2.282 5.484 7.776 7.776 0 0 1-4.77 2.234v.04Zm-.717-.734a7.062 7.062 0 0 0 4.973-2.055 7.029 7.029 0 0 0 2.068-4.968c0-1.39-.413-2.749-1.187-3.905a7.043 7.043 0 0 0-3.162-2.589 7.063 7.063 0 0 0-7.678 1.522 7.023 7.023 0 0 0-1.532 7.658 7.032 7.032 0 0 0 2.593 3.155 7.057 7.057 0 0 0 3.913 1.188v-.006h.012Z" fill="#00519D"/></g><g style="mix-blend-mode:overlay" opacity=".3"><path d="M15.063 11.247h28.638v25.119H15.063v-25.12Z" fill="#31B0FF"/><path fill-rule="evenodd" clip-rule="evenodd" d="M31.445 10.155H13.728v23.663h17.717V10.155ZM13 9.427v25.119h19.173V9.426H13Z" fill="#00519D"/><path fill-rule="evenodd" clip-rule="evenodd" d="M29.382 12.946h-6.068v7.28h6.068v-7.28Zm-6.796-.728v8.737h7.524v-8.737h-7.524ZM40.91 10.155h-8.737v23.663h8.737V10.155Zm-9.465-.728v25.119h10.193V9.426H31.445Z" fill="#00519D"/></g><g style="mix-blend-mode:overlay" opacity=".3"><path fill="#31B0FF" d="M106.03 10.906h19.71V27.85h-19.71zM127.123 17.822v9.682h10.028v-7.089l-2.593-2.593h-7.435Z"/><circle cx="112.6" cy="32.691" r="3.804" fill="#31B0FF"/><circle cx="130.927" cy="32.691" r="3.804" fill="#31B0FF"/><path fill-rule="evenodd" clip-rule="evenodd" d="M104.301 9.523c0-.191.155-.346.346-.346h21.093c.191 0 .346.155.346.346V27.85a.346.346 0 0 1-.346.345h-21.093a.346.346 0 0 1-.346-.345V9.523Zm.691.345v17.636h20.402V9.868h-20.402Z" fill="#00519D"/><path fill-rule="evenodd" clip-rule="evenodd" d="M125.394 16.438c0-.19.155-.345.346-.345h5.73c.092 0 .179.036.244.1l4.298 4.28a.347.347 0 0 1 .102.245v7.132c0 .19-.155.345-.346.345H125.74a.346.346 0 0 1-.346-.345V16.438Zm.692.346v10.72h9.336V20.86l-4.095-4.077h-5.241ZM111.044 28.195a3.285 3.285 0 1 0-.001 6.571 3.285 3.285 0 0 0 .001-6.57Zm-3.977 3.285a3.976 3.976 0 1 1 7.953 0 3.976 3.976 0 0 1-7.953 0Z" fill="#00519D"/><path fill-rule="evenodd" clip-rule="evenodd" d="M129.371 28.195a3.285 3.285 0 1 0 0 6.57 3.285 3.285 0 0 0 0-6.57Zm-3.977 3.285a3.976 3.976 0 1 1 7.953 0 3.976 3.976 0 0 1-7.953 0Z" fill="#00519D"/></g><g style="mix-blend-mode:overlay" opacity=".3"><path d="M154.787 16.093v19.364l8.582-4.84 9.808 4.84 8.582-4.84V11.251l-8.582 4.84-9.808-4.84-8.582 4.84Z" fill="#31B0FF"/><path fill-rule="evenodd" clip-rule="evenodd" d="M161.815 8.53c.1-.056.221-.06.323-.009l9.645 4.76 8.422-4.751a.347.347 0 0 1 .516.301v19.365c0 .124-.067.24-.176.3l-8.582 4.842a.346.346 0 0 1-.323.009l-9.644-4.76-8.423 4.75a.345.345 0 0 1-.515-.3V13.672c0-.125.067-.24.176-.3l8.581-4.842Zm.181.692-8.247 4.652v18.57l8.066-4.55c.1-.056.221-.06.323-.008l9.645 4.76 8.247-4.652V9.424l-8.067 4.55a.346.346 0 0 1-.323.008l-9.644-4.76Z" fill="#00519D"/><path fill-rule="evenodd" clip-rule="evenodd" d="M162.048 8.485c.191 0 .346.155.346.346v19.365a.346.346 0 0 1-.691 0V8.83c0-.19.154-.346.345-.346ZM171.731 13.326c.191 0 .345.155.345.346v19.365a.345.345 0 1 1-.691 0V13.672c0-.19.155-.346.346-.346Z" fill="#00519D"/></g><g style="mix-blend-mode:overlay" opacity=".3"><path d="M262.194 7.003a12.435 12.435 0 0 0-8.446 3.62 12.376 12.376 0 0 0-3.637 8.421 12.225 12.225 0 0 0 2.318 7.515l.122.167 8.762 11.89a1.881 1.881 0 0 0 1.565.784 1.892 1.892 0 0 0 1.535-.841l7.922-11.752c1.501-2.277 2.526-4.665 2.526-7.474a12.343 12.343 0 0 0-3.733-8.823 12.381 12.381 0 0 0-8.934-3.507Zm.29 19.654a7.06 7.06 0 0 1-3.914-1.188 7.012 7.012 0 0 1-1.061-10.814 7.062 7.062 0 0 1 10.84 1.068 7.017 7.017 0 0 1 1.187 3.905 7.016 7.016 0 0 1-2.068 4.968 7.049 7.049 0 0 1-4.984 2.055v.006Z" fill="#31B0FF"/><path fill-rule="evenodd" clip-rule="evenodd" d="m261.986 38.559 7.922-11.752c1.501-2.277 2.527-4.665 2.527-7.474a12.325 12.325 0 0 0-3.734-8.823 12.381 12.381 0 0 0-8.934-3.507 12.435 12.435 0 0 0-8.446 3.62 12.37 12.37 0 0 0-3.636 8.421 12.218 12.218 0 0 0 2.318 7.515l.121.167 8.762 11.89a1.881 1.881 0 0 0 1.566.784 1.885 1.885 0 0 0 1.534-.841ZM250.71 26.294l.003.005 8.762 11.889.002.003a1.152 1.152 0 0 0 .961.48 1.16 1.16 0 0 0 .942-.515l.001-.002 7.919-11.748.002-.003c1.455-2.207 2.404-4.454 2.405-7.07a11.602 11.602 0 0 0-3.514-8.301 11.647 11.647 0 0 0-3.87-2.497 11.68 11.68 0 0 0-4.538-.804c-2.989.08-5.834 1.3-7.95 3.408a11.649 11.649 0 0 0-3.423 7.925 11.493 11.493 0 0 0 2.18 7.068l.118.162Zm10.075 1.091h-.729a7.788 7.788 0 0 1-4.317-1.31 7.767 7.767 0 0 1-2.861-3.482 7.737 7.737 0 0 1 1.69-8.453 7.782 7.782 0 0 1 8.471-1.678 7.77 7.77 0 0 1 3.488 2.856 7.746 7.746 0 0 1 1.31 4.31 7.757 7.757 0 0 1-7.052 7.718v.04Zm-.717-.734a7.064 7.064 0 0 0 4.973-2.055 7.03 7.03 0 0 0 1.53-2.279 7.017 7.017 0 0 0-.649-6.594 7.043 7.043 0 0 0-3.161-2.589 7.065 7.065 0 0 0-7.679 1.522 7.013 7.013 0 0 0-1.531 7.658 7.028 7.028 0 0 0 2.592 3.155 7.063 7.063 0 0 0 3.914 1.188v-.006h.011Z" fill="#00519D"/></g><g style="mix-blend-mode:overlay" opacity=".3"><path d="M201.446 11.247h28.638v25.119h-28.638v-25.12Z" fill="#31B0FF"/><path fill-rule="evenodd" clip-rule="evenodd" d="M217.828 10.155h-17.717v23.663h17.717V10.155Zm-18.445-.728v25.119h19.173V9.426h-19.173Z" fill="#00519D"/><path fill-rule="evenodd" clip-rule="evenodd" d="M215.765 12.946h-6.068v7.28h6.068v-7.28Zm-6.796-.728v8.737h7.524v-8.737h-7.524ZM227.293 10.155h-8.737v23.663h8.737V10.155Zm-9.465-.728v25.119h10.193V9.426h-10.193Z" fill="#00519D"/></g><g style="mix-blend-mode:overlay" opacity=".3"><path fill="#31B0FF" d="M292.413 10.906h19.71V27.85h-19.71zM313.506 17.822v9.682h10.028v-7.089l-2.594-2.593h-7.434Z"/><circle cx="298.982" cy="32.691" r="3.804" fill="#31B0FF"/><circle cx="317.31" cy="32.691" r="3.804" fill="#31B0FF"/><path fill-rule="evenodd" clip-rule="evenodd" d="M290.684 9.523c0-.191.154-.346.345-.346h21.094c.191 0 .346.155.346.346V27.85a.346.346 0 0 1-.346.345h-21.094a.345.345 0 0 1-.345-.345V9.523Zm.691.345v17.636h20.402V9.868h-20.402Z" fill="#00519D"/><path fill-rule="evenodd" clip-rule="evenodd" d="M311.777 16.438c0-.19.155-.345.346-.345h5.73c.091 0 .179.036.244.1l4.298 4.28a.346.346 0 0 1 .101.245v7.132c0 .19-.154.345-.345.345h-10.028a.346.346 0 0 1-.346-.345V16.438Zm.691.346v10.72h9.337V20.86l-4.095-4.077h-5.242ZM297.427 28.195a3.285 3.285 0 1 0 0 6.57 3.285 3.285 0 0 0 0-6.57Zm-3.977 3.285a3.977 3.977 0 1 1 7.954.001 3.977 3.977 0 0 1-7.954 0Z" fill="#00519D"/><path fill-rule="evenodd" clip-rule="evenodd" d="M315.753 28.195a3.285 3.285 0 1 0 0 6.57 3.285 3.285 0 0 0 0-6.57Zm-3.976 3.285a3.976 3.976 0 1 1 7.953 0 3.976 3.976 0 0 1-7.953 0Z" fill="#00519D"/></g><g style="mix-blend-mode:overlay" opacity=".3"><path d="M341.169 16.093v19.364l8.582-4.84 9.808 4.84 8.582-4.84V11.251l-8.582 4.84-9.808-4.84-8.582 4.84Z" fill="#31B0FF"/><path fill-rule="evenodd" clip-rule="evenodd" d="M348.198 8.53c.1-.056.221-.06.323-.009l9.644 4.76 8.423-4.751a.347.347 0 0 1 .516.301v19.365c0 .124-.067.24-.176.3l-8.582 4.842a.346.346 0 0 1-.323.009l-9.644-4.76-8.423 4.75a.345.345 0 0 1-.516-.3V13.672c0-.125.068-.24.176-.3l8.582-4.842Zm.181.692-8.247 4.652v18.57l8.066-4.55c.1-.056.221-.06.323-.008l9.644 4.76 8.247-4.652V9.424l-8.066 4.55a.346.346 0 0 1-.323.008l-9.644-4.76Z" fill="#00519D"/><path fill-rule="evenodd" clip-rule="evenodd" d="M348.431 8.485c.191 0 .346.155.346.346v19.365a.346.346 0 0 1-.692 0V8.83c0-.19.155-.346.346-.346ZM358.113 13.326c.191 0 .346.155.346.346v19.365a.346.346 0 0 1-.691 0V13.672c0-.19.154-.346.345-.346Z" fill="#00519D"/></g><g style="mix-blend-mode:overlay" opacity=".3"><path d="M449.052 7.003a12.43 12.43 0 0 0-8.445 3.62 12.371 12.371 0 0 0-3.637 8.421 12.218 12.218 0 0 0 2.318 7.515l.121.167 8.762 11.89a1.89 1.89 0 0 0 2.437.552c.267-.146.495-.356.664-.61l7.921-11.75c1.501-2.278 2.527-4.666 2.527-7.475a12.325 12.325 0 0 0-3.734-8.823 12.381 12.381 0 0 0-8.934-3.507Zm.29 19.654a7.057 7.057 0 0 1-3.913-1.188 7.03 7.03 0 0 1-2.593-3.155 7.013 7.013 0 0 1 1.531-7.658 7.065 7.065 0 0 1 7.679-1.521 7.043 7.043 0 0 1 3.161 2.588 7.017 7.017 0 0 1 .649 6.594 7.03 7.03 0 0 1-3.817 3.801 7.062 7.062 0 0 1-2.697.533v.006Z" fill="#31B0FF"/><path fill-rule="evenodd" clip-rule="evenodd" d="m448.845 38.559 7.922-11.752c1.5-2.277 2.526-4.665 2.526-7.474a12.325 12.325 0 0 0-3.733-8.823 12.385 12.385 0 0 0-8.935-3.507 12.432 12.432 0 0 0-8.445 3.62 12.371 12.371 0 0 0-3.637 8.421 12.218 12.218 0 0 0 2.318 7.515l.122.167 8.762 11.89a1.878 1.878 0 0 0 1.565.784 1.885 1.885 0 0 0 1.535-.841Zm-11.276-12.265.003.005 8.761 11.889.003.003a1.157 1.157 0 0 0 1.902-.035l.002-.002 7.919-11.748.002-.003c1.454-2.207 2.404-4.454 2.404-7.07a11.62 11.62 0 0 0-7.384-10.799 11.676 11.676 0 0 0-4.537-.803c-2.99.08-5.835 1.3-7.95 3.408a11.64 11.64 0 0 0-3.423 7.925 11.493 11.493 0 0 0 2.18 7.068l.118.162Zm10.074 1.091h-.728a7.785 7.785 0 0 1-4.317-1.31 7.753 7.753 0 0 1-3.302-7.965 7.758 7.758 0 0 1 2.13-3.97 7.79 7.79 0 0 1 8.471-1.678 7.77 7.77 0 0 1 3.488 2.856 7.74 7.74 0 0 1 1.311 4.31 7.739 7.739 0 0 1-2.283 5.484 7.772 7.772 0 0 1-4.77 2.234v.04Zm-.716-.734a7.059 7.059 0 0 0 4.973-2.055 7.016 7.016 0 0 0 2.068-4.969c0-1.39-.414-2.748-1.188-3.904a7.043 7.043 0 0 0-3.161-2.589 7.064 7.064 0 0 0-7.679 1.522 7.021 7.021 0 0 0 1.062 10.814 7.055 7.055 0 0 0 3.913 1.187v-.006h.012Z" fill="#00519D"/></g><g style="mix-blend-mode:overlay" opacity=".3"><path d="M388.305 11.247h28.638v25.119h-28.638v-25.12Z" fill="#31B0FF"/><path fill-rule="evenodd" clip-rule="evenodd" d="M404.687 10.155H386.97v23.663h17.717V10.155Zm-18.445-.728v25.119h19.173V9.426h-19.173Z" fill="#00519D"/><path fill-rule="evenodd" clip-rule="evenodd" d="M402.624 12.946h-6.068v7.28h6.068v-7.28Zm-6.796-.728v8.737h7.524v-8.737h-7.524ZM414.152 10.155h-8.737v23.663h8.737V10.155Zm-9.465-.728v25.119h10.193V9.426h-10.193Z" fill="#00519D"/></g><g style="mix-blend-mode:overlay" opacity=".3"><path fill="#31B0FF" d="M479.271 10.906h19.71V27.85h-19.71z"/><circle cx="485.841" cy="32.691" r="3.804" fill="#31B0FF"/><path fill-rule="evenodd" clip-rule="evenodd" d="M477.542 9.523c0-.191.155-.346.346-.346h21.093c.191 0 .346.155.346.346V27.85a.346.346 0 0 1-.346.345h-21.093a.346.346 0 0 1-.346-.345V9.523Zm.692.345v17.636h20.401V9.868h-20.401Z" fill="#00519D"/><path fill-rule="evenodd" clip-rule="evenodd" d="M484.285 28.195a3.285 3.285 0 1 0 0 6.57 3.285 3.285 0 0 0 0-6.57Zm-3.977 3.285a3.977 3.977 0 1 1 7.954.001 3.977 3.977 0 0 1-7.954 0Z" fill="#00519D"/></g><g style="mix-blend-mode:overlay" opacity=".3"><path d="M479.063 56.247h28.638v25.119h-28.638v-25.12Z" fill="#31B0FF"/><path fill-rule="evenodd" clip-rule="evenodd" d="M495.445 55.155h-17.717v23.663h17.717V55.155ZM477 54.427v25.119h19.173v-25.12H477Z" fill="#00519D"/><path fill-rule="evenodd" clip-rule="evenodd" d="M493.382 57.946h-6.067v7.28h6.067v-7.28Zm-6.796-.728v8.737h7.524v-8.737h-7.524Z" fill="#00519D"/></g><g style="mix-blend-mode:overlay" opacity=".3"><path fill="#31B0FF" d="M10.03 55.906h19.71V72.85H10.03zM31.123 62.822v9.682h10.028v-7.089l-2.593-2.593h-7.435Z"/><circle cx="16.6" cy="77.691" r="3.804" fill="#31B0FF"/><circle cx="34.927" cy="77.691" r="3.804" fill="#31B0FF"/><path fill-rule="evenodd" clip-rule="evenodd" d="M8.3 54.523c0-.191.156-.346.347-.346H29.74c.191 0 .346.155.346.346V72.85a.346.346 0 0 1-.346.345H8.647a.346.346 0 0 1-.346-.345V54.523Zm.692.345v17.636h20.402V54.868H8.992Z" fill="#00519D"/><path fill-rule="evenodd" clip-rule="evenodd" d="M29.394 61.438c0-.19.155-.345.346-.345h5.73c.092 0 .18.036.244.1l4.298 4.28a.346.346 0 0 1 .102.245v7.132c0 .19-.155.345-.346.345H29.74a.346.346 0 0 1-.346-.345V61.438Zm.692.346v10.72h9.336V65.86l-4.095-4.077h-5.241ZM15.043 73.195a3.285 3.285 0 1 0 0 6.57 3.285 3.285 0 0 0 0-6.57Zm-3.976 3.285a3.977 3.977 0 1 1 7.953 0 3.977 3.977 0 0 1-7.953 0Z" fill="#00519D"/><path fill-rule="evenodd" clip-rule="evenodd" d="M33.37 73.195a3.285 3.285 0 1 0 0 6.57 3.285 3.285 0 0 0 0-6.57Zm-3.976 3.285a3.977 3.977 0 1 1 7.953 0 3.977 3.977 0 0 1-7.953 0Z" fill="#00519D"/></g><g style="mix-blend-mode:overlay" opacity=".3"><path d="M58.787 61.093v19.364l8.582-4.84 9.808 4.84 8.582-4.84V56.251l-8.582 4.84-9.808-4.84-8.582 4.84Z" fill="#31B0FF"/><path fill-rule="evenodd" clip-rule="evenodd" d="M65.816 53.53c.1-.056.22-.06.322-.009l9.645 4.76 8.422-4.751a.346.346 0 0 1 .516.301v19.365c0 .124-.067.24-.176.3l-8.582 4.842c-.1.056-.22.06-.323.009l-9.644-4.76-8.423 4.75a.346.346 0 0 1-.515-.3V58.672c0-.124.067-.24.175-.3l8.583-4.842Zm.18.692-8.247 4.652v18.57l8.066-4.55c.1-.056.22-.06.323-.009l9.645 4.76 8.247-4.651v-18.57l-8.067 4.55c-.1.056-.22.059-.323.008l-9.644-4.76Z" fill="#00519D"/><path fill-rule="evenodd" clip-rule="evenodd" d="M66.048 53.485c.191 0 .346.155.346.346v19.365a.346.346 0 1 1-.691 0V53.83c0-.19.154-.346.345-.346ZM75.73 58.327c.191 0 .346.154.346.345v19.365a.346.346 0 0 1-.691 0V58.672c0-.19.155-.345.346-.345Z" fill="#00519D"/></g><g style="mix-blend-mode:overlay" opacity=".3"><path d="M166.194 52.003a12.435 12.435 0 0 0-8.446 3.62 12.376 12.376 0 0 0-3.637 8.421 12.225 12.225 0 0 0 2.318 7.515l.122.167 8.762 11.89a1.881 1.881 0 0 0 1.565.784 1.892 1.892 0 0 0 1.535-.841l7.922-11.752c1.501-2.277 2.526-4.665 2.526-7.474a12.343 12.343 0 0 0-3.733-8.823 12.38 12.38 0 0 0-8.934-3.507Zm.29 19.654a7.06 7.06 0 0 1-3.914-1.188 7.012 7.012 0 0 1-1.061-10.814 7.062 7.062 0 0 1 10.84 1.068 7.017 7.017 0 0 1 1.187 3.905 7.016 7.016 0 0 1-2.068 4.968 7.049 7.049 0 0 1-4.984 2.055v.006Z" fill="#31B0FF"/><path fill-rule="evenodd" clip-rule="evenodd" d="m165.986 83.559 7.922-11.752c1.501-2.277 2.527-4.665 2.527-7.474a12.325 12.325 0 0 0-3.734-8.823 12.38 12.38 0 0 0-8.934-3.507 12.435 12.435 0 0 0-8.446 3.62 12.37 12.37 0 0 0-3.636 8.421 12.218 12.218 0 0 0 2.318 7.515l.121.167 8.762 11.89a1.881 1.881 0 0 0 1.566.784 1.885 1.885 0 0 0 1.534-.841ZM154.71 71.294l.003.005 8.762 11.889.002.003a1.152 1.152 0 0 0 .961.48 1.16 1.16 0 0 0 .942-.515l.001-.002 7.919-11.748.002-.003c1.455-2.207 2.404-4.454 2.405-7.07a11.602 11.602 0 0 0-3.514-8.301 11.647 11.647 0 0 0-3.87-2.497 11.683 11.683 0 0 0-4.538-.804c-2.989.08-5.834 1.3-7.95 3.408a11.649 11.649 0 0 0-3.423 7.925 11.493 11.493 0 0 0 2.18 7.068l.118.162Zm10.075 1.091h-.729a7.788 7.788 0 0 1-4.317-1.31 7.767 7.767 0 0 1-2.861-3.483 7.737 7.737 0 0 1 1.69-8.452 7.782 7.782 0 0 1 8.471-1.678 7.77 7.77 0 0 1 3.488 2.856 7.746 7.746 0 0 1 1.31 4.31 7.757 7.757 0 0 1-7.052 7.718v.04Zm-.717-.734a7.064 7.064 0 0 0 4.973-2.055 7.03 7.03 0 0 0 1.53-2.279 7.017 7.017 0 0 0-.649-6.594 7.043 7.043 0 0 0-3.161-2.589 7.065 7.065 0 0 0-7.679 1.522 7.013 7.013 0 0 0-1.531 7.658 7.028 7.028 0 0 0 2.592 3.155 7.063 7.063 0 0 0 3.914 1.188v-.006h.011Z" fill="#00519D"/></g><g style="mix-blend-mode:overlay" opacity=".3"><path d="M105.446 56.247h28.638v25.119h-28.638v-25.12Z" fill="#31B0FF"/><path fill-rule="evenodd" clip-rule="evenodd" d="M121.828 55.155h-17.717v23.663h17.717V55.155Zm-18.445-.728v25.119h19.173v-25.12h-19.173Z" fill="#00519D"/><path fill-rule="evenodd" clip-rule="evenodd" d="M119.765 57.946h-6.068v7.28h6.068v-7.28Zm-6.796-.728v8.737h7.524v-8.737h-7.524ZM131.293 55.155h-8.737v23.663h8.737V55.155Zm-9.465-.728v25.119h10.193v-25.12h-10.193Z" fill="#00519D"/></g><g style="mix-blend-mode:overlay" opacity=".3"><path fill="#31B0FF" d="M196.413 55.906h19.71V72.85h-19.71zM217.506 62.822v9.682h10.028v-7.089l-2.594-2.593h-7.434Z"/><circle cx="202.982" cy="77.691" r="3.804" fill="#31B0FF"/><circle cx="221.31" cy="77.691" r="3.804" fill="#31B0FF"/><path fill-rule="evenodd" clip-rule="evenodd" d="M194.684 54.523c0-.191.154-.346.345-.346h21.094c.191 0 .346.155.346.346V72.85a.346.346 0 0 1-.346.345h-21.094a.345.345 0 0 1-.345-.345V54.523Zm.691.345v17.636h20.402V54.868h-20.402Z" fill="#00519D"/><path fill-rule="evenodd" clip-rule="evenodd" d="M215.777 61.438c0-.19.155-.345.346-.345h5.73c.091 0 .179.036.244.1l4.298 4.28a.346.346 0 0 1 .101.245v7.132c0 .19-.154.345-.345.345h-10.028a.346.346 0 0 1-.346-.345V61.438Zm.691.346v10.72h9.337V65.86l-4.095-4.077h-5.242ZM201.427 73.195a3.285 3.285 0 1 0 0 6.57 3.285 3.285 0 0 0 0-6.57Zm-3.977 3.285a3.977 3.977 0 1 1 7.954.001 3.977 3.977 0 0 1-7.954 0Z" fill="#00519D"/><path fill-rule="evenodd" clip-rule="evenodd" d="M219.753 73.195a3.285 3.285 0 1 0 0 6.57 3.285 3.285 0 0 0 0-6.57Zm-3.976 3.285a3.976 3.976 0 1 1 7.953 0 3.976 3.976 0 0 1-7.953 0Z" fill="#00519D"/></g><g style="mix-blend-mode:overlay" opacity=".3"><path d="M245.169 61.093v19.364l8.582-4.84 9.808 4.84 8.582-4.84V56.251l-8.582 4.84-9.808-4.84-8.582 4.84Z" fill="#31B0FF"/><path fill-rule="evenodd" clip-rule="evenodd" d="M252.198 53.53c.1-.056.221-.06.323-.009l9.644 4.76 8.423-4.751a.347.347 0 0 1 .516.301v19.365c0 .124-.067.24-.176.3l-8.582 4.842a.346.346 0 0 1-.323.009l-9.644-4.76-8.423 4.75a.345.345 0 0 1-.516-.3V58.672c0-.124.068-.24.176-.3l8.582-4.842Zm.181.692-8.247 4.652v18.57l8.066-4.55c.1-.056.221-.06.323-.009l9.644 4.76 8.247-4.651v-18.57l-8.066 4.55a.346.346 0 0 1-.323.008l-9.644-4.76Z" fill="#00519D"/><path fill-rule="evenodd" clip-rule="evenodd" d="M252.431 53.485c.191 0 .346.155.346.346v19.365a.346.346 0 0 1-.692 0V53.83c0-.19.155-.346.346-.346ZM262.113 58.327c.191 0 .346.154.346.345v19.365a.346.346 0 0 1-.691 0V58.672c0-.19.154-.345.345-.345Z" fill="#00519D"/></g><g style="mix-blend-mode:overlay" opacity=".3"><path d="M353.052 52.003a12.43 12.43 0 0 0-8.445 3.62 12.371 12.371 0 0 0-3.637 8.421 12.218 12.218 0 0 0 2.318 7.515l.121.167 8.762 11.89a1.89 1.89 0 0 0 2.437.552c.267-.147.495-.356.664-.61l7.921-11.75c1.501-2.278 2.527-4.666 2.527-7.475a12.325 12.325 0 0 0-3.734-8.823 12.38 12.38 0 0 0-8.934-3.507Zm.29 19.654a7.057 7.057 0 0 1-3.913-1.188 7.03 7.03 0 0 1-2.593-3.155 7.013 7.013 0 0 1 1.531-7.658 7.065 7.065 0 0 1 7.679-1.521 7.043 7.043 0 0 1 3.161 2.588 7.017 7.017 0 0 1 .649 6.594 7.03 7.03 0 0 1-3.817 3.801 7.062 7.062 0 0 1-2.697.533v.006Z" fill="#31B0FF"/><path fill-rule="evenodd" clip-rule="evenodd" d="m352.845 83.559 7.922-11.752c1.5-2.277 2.526-4.665 2.526-7.474a12.325 12.325 0 0 0-3.733-8.823 12.384 12.384 0 0 0-8.935-3.507 12.432 12.432 0 0 0-8.445 3.62 12.371 12.371 0 0 0-3.637 8.421 12.218 12.218 0 0 0 2.318 7.515l.122.167 8.762 11.89a1.878 1.878 0 0 0 1.565.784 1.885 1.885 0 0 0 1.535-.841Zm-11.276-12.265.003.005 8.761 11.889.003.003a1.157 1.157 0 0 0 1.902-.035l.002-.002 7.919-11.748.002-.003c1.454-2.207 2.404-4.454 2.404-7.07a11.62 11.62 0 0 0-7.384-10.799 11.678 11.678 0 0 0-4.537-.803c-2.99.08-5.835 1.3-7.95 3.408a11.64 11.64 0 0 0-3.423 7.925 11.493 11.493 0 0 0 2.18 7.068l.118.162Zm10.074 1.091h-.728a7.785 7.785 0 0 1-4.317-1.31 7.753 7.753 0 0 1-3.302-7.965 7.758 7.758 0 0 1 2.13-3.97 7.79 7.79 0 0 1 8.471-1.678 7.77 7.77 0 0 1 3.488 2.856 7.74 7.74 0 0 1 1.311 4.31 7.739 7.739 0 0 1-2.283 5.484 7.772 7.772 0 0 1-4.77 2.234v.04Zm-.716-.734a7.059 7.059 0 0 0 4.973-2.055 7.016 7.016 0 0 0 2.068-4.969c0-1.39-.414-2.748-1.188-3.904a7.043 7.043 0 0 0-3.161-2.589 7.064 7.064 0 0 0-7.679 1.522 7.021 7.021 0 0 0 1.062 10.814 7.055 7.055 0 0 0 3.913 1.187v-.006h.012Z" fill="#00519D"/></g><g style="mix-blend-mode:overlay" opacity=".3"><path d="M292.305 56.247h28.638v25.119h-28.638v-25.12Z" fill="#31B0FF"/><path fill-rule="evenodd" clip-rule="evenodd" d="M308.687 55.155H290.97v23.663h17.717V55.155Zm-18.445-.728v25.119h19.173v-25.12h-19.173Z" fill="#00519D"/><path fill-rule="evenodd" clip-rule="evenodd" d="M306.624 57.946h-6.068v7.28h6.068v-7.28Zm-6.796-.728v8.737h7.524v-8.737h-7.524ZM318.152 55.155h-8.737v23.663h8.737V55.155Zm-9.465-.728v25.119h10.193v-25.12h-10.193Z" fill="#00519D"/></g><g style="mix-blend-mode:overlay" opacity=".3"><path fill="#31B0FF" d="M383.271 55.906h19.71V72.85h-19.71zM404.364 62.822v9.682h10.028v-7.089l-2.593-2.593h-7.435Z"/><circle cx="389.841" cy="77.691" r="3.804" fill="#31B0FF"/><circle cx="408.168" cy="77.691" r="3.804" fill="#31B0FF"/><path fill-rule="evenodd" clip-rule="evenodd" d="M381.542 54.523c0-.191.155-.346.346-.346h21.093c.191 0 .346.155.346.346V72.85a.346.346 0 0 1-.346.345h-21.093a.346.346 0 0 1-.346-.345V54.523Zm.692.345v17.636h20.401V54.868h-20.401Z" fill="#00519D"/><path fill-rule="evenodd" clip-rule="evenodd" d="M402.635 61.438c0-.19.155-.345.346-.345h5.73c.092 0 .18.036.244.1l4.298 4.28a.347.347 0 0 1 .102.245v7.132c0 .19-.155.345-.346.345h-10.028a.346.346 0 0 1-.346-.345V61.438Zm.692.346v10.72h9.336V65.86l-4.094-4.077h-5.242ZM388.285 73.195a3.285 3.285 0 1 0 0 6.57 3.285 3.285 0 0 0 0-6.57Zm-3.977 3.285a3.977 3.977 0 1 1 7.954.001 3.977 3.977 0 0 1-7.954 0Z" fill="#00519D"/><path fill-rule="evenodd" clip-rule="evenodd" d="M406.612 73.195a3.285 3.285 0 1 0 0 6.57 3.285 3.285 0 0 0 0-6.57Zm-3.977 3.285a3.977 3.977 0 1 1 7.954.001 3.977 3.977 0 0 1-7.954 0Z" fill="#00519D"/></g><g style="mix-blend-mode:overlay" opacity=".3"><path d="M432.028 61.093v19.364l8.582-4.84 9.808 4.84 8.582-4.84V56.251l-8.582 4.84-9.808-4.84-8.582 4.84Z" fill="#31B0FF"/><path fill-rule="evenodd" clip-rule="evenodd" d="M439.057 53.53a.346.346 0 0 1 .323-.009l9.644 4.76 8.423-4.751a.345.345 0 0 1 .515.301v19.365c0 .124-.067.24-.176.3l-8.582 4.842a.344.344 0 0 1-.322.009l-9.645-4.76-8.422 4.75a.347.347 0 0 1-.516-.3V58.672c0-.124.067-.24.176-.3l8.582-4.842Zm.18.692-8.247 4.652v18.57l8.067-4.55a.346.346 0 0 1 .323-.009l9.644 4.76 8.247-4.651v-18.57l-8.067 4.55a.344.344 0 0 1-.322.008l-9.645-4.76Z" fill="#00519D"/><path fill-rule="evenodd" clip-rule="evenodd" d="M439.29 53.485c.191 0 .345.155.345.346v19.365a.345.345 0 1 1-.691 0V53.83c0-.19.155-.346.346-.346ZM448.972 58.327c.191 0 .346.154.346.345v19.365a.346.346 0 0 1-.692 0V58.672c0-.19.155-.345.346-.345Z" fill="#00519D"/></g><g style="mix-blend-mode:overlay" opacity=".3"><path d="M75.81 97.003a12.433 12.433 0 0 0-8.445 3.62 12.372 12.372 0 0 0-3.637 8.421 12.224 12.224 0 0 0 2.318 7.515l.122.167 8.762 11.891a1.89 1.89 0 0 0 1.565.783 1.897 1.897 0 0 0 1.535-.841l7.922-11.752c1.5-2.277 2.526-4.665 2.526-7.474a12.318 12.318 0 0 0-3.733-8.823 12.405 12.405 0 0 0-8.934-3.507Zm.29 19.654a7.06 7.06 0 0 1-3.913-1.188 7.015 7.015 0 0 1-1.061-10.813 7.051 7.051 0 0 1 7.678-1.522 7.054 7.054 0 0 1 3.162 2.589 7.007 7.007 0 0 1-.88 8.873 7.049 7.049 0 0 1-4.984 2.055v.006Z" fill="#31B0FF"/><path fill-rule="evenodd" clip-rule="evenodd" d="m75.603 128.559 7.922-11.752c1.5-2.277 2.526-4.665 2.526-7.474a12.318 12.318 0 0 0-3.733-8.823 12.404 12.404 0 0 0-8.934-3.507 12.433 12.433 0 0 0-8.446 3.62 12.372 12.372 0 0 0-3.637 8.421 12.224 12.224 0 0 0 2.318 7.515l.122.167 8.762 11.891a1.89 1.89 0 0 0 2.437.551c.267-.147.495-.356.663-.609Zm-11.276-12.265.003.004 8.761 11.89.003.003a1.163 1.163 0 0 0 1.496.338c.164-.089.304-.218.407-.373l.001-.002 7.919-11.747.002-.004c1.454-2.207 2.404-4.454 2.404-7.069a11.598 11.598 0 0 0-3.513-8.302 11.68 11.68 0 0 0-8.408-3.3c-2.99.08-5.835 1.299-7.95 3.407a11.644 11.644 0 0 0-3.423 7.925v.001a11.495 11.495 0 0 0 2.18 7.067l.118.162Zm10.075 1.092-.73-.001a7.785 7.785 0 0 1-4.316-1.31 7.743 7.743 0 0 1-1.171-11.935 7.784 7.784 0 0 1 11.959 1.178 7.748 7.748 0 0 1 1.31 4.31 7.746 7.746 0 0 1-2.282 5.484 7.77 7.77 0 0 1-4.77 2.234v.04Zm-.717-.735a7.068 7.068 0 0 0 4.973-2.055 7.021 7.021 0 0 0 2.068-4.968c0-1.39-.413-2.749-1.187-3.905a7.053 7.053 0 0 0-12.77 2.53 7.013 7.013 0 0 0 2.991 7.216 7.06 7.06 0 0 0 3.913 1.188v-.006h.012Z" fill="#00519D"/></g><g style="mix-blend-mode:overlay" opacity=".3"><path d="M15.063 101.247h28.638v25.119H15.063v-25.119Z" fill="#31B0FF"/><path fill-rule="evenodd" clip-rule="evenodd" d="M31.445 100.155H13.728v23.663h17.717v-23.663ZM13 99.427v25.119h19.173v-25.12H13Z" fill="#00519D"/><path fill-rule="evenodd" clip-rule="evenodd" d="M29.382 102.946h-6.068v7.281h6.068v-7.281Zm-6.796-.728v8.737h7.524v-8.737h-7.524ZM40.91 100.155h-8.737v23.663h8.737v-23.663Zm-9.465-.728v25.119h10.193v-25.12H31.445Z" fill="#00519D"/></g><g style="mix-blend-mode:overlay" opacity=".3"><path fill="#31B0FF" d="M106.03 100.906h19.71v16.944h-19.71zM127.123 107.822v9.682h10.028v-7.089l-2.593-2.593h-7.435Z"/><circle cx="112.6" cy="122.691" r="3.804" fill="#31B0FF"/><circle cx="130.927" cy="122.691" r="3.804" fill="#31B0FF"/><path fill-rule="evenodd" clip-rule="evenodd" d="M104.301 99.523c0-.191.155-.346.346-.346h21.093c.191 0 .346.155.346.346v18.327a.345.345 0 0 1-.346.345h-21.093a.345.345 0 0 1-.346-.345V99.523Zm.691.345v17.636h20.402V99.868h-20.402Z" fill="#00519D"/><path fill-rule="evenodd" clip-rule="evenodd" d="M125.394 106.438c0-.191.155-.345.346-.345h5.73c.092 0 .179.036.244.1l4.298 4.28a.345.345 0 0 1 .102.245v7.132a.345.345 0 0 1-.346.345H125.74a.345.345 0 0 1-.346-.345v-11.412Zm.692.346v10.72h9.336v-6.643l-4.095-4.077h-5.241ZM111.044 118.195a3.286 3.286 0 1 0 0 6.571 3.286 3.286 0 0 0 0-6.571Zm-3.977 3.285a3.976 3.976 0 1 1 7.952 0 3.976 3.976 0 0 1-7.952 0Z" fill="#00519D"/><path fill-rule="evenodd" clip-rule="evenodd" d="M129.371 118.195a3.285 3.285 0 1 0 0 6.57 3.285 3.285 0 0 0 0-6.57Zm-3.977 3.285a3.976 3.976 0 1 1 7.952 0 3.976 3.976 0 0 1-7.952 0Z" fill="#00519D"/></g><g style="mix-blend-mode:overlay" opacity=".3"><path d="M154.787 106.093v19.364l8.582-4.841 9.808 4.841 8.582-4.841v-19.364l-8.582 4.841-9.808-4.841-8.582 4.841Z" fill="#31B0FF"/><path fill-rule="evenodd" clip-rule="evenodd" d="M161.815 98.53c.1-.056.221-.06.323-.009l9.645 4.76 8.422-4.751a.347.347 0 0 1 .516.301v19.365a.347.347 0 0 1-.176.301l-8.582 4.841a.348.348 0 0 1-.323.009l-9.644-4.76-8.423 4.751a.346.346 0 0 1-.515-.301v-19.365c0-.125.067-.24.176-.301l8.581-4.841Zm.181.692-8.247 4.652v18.571l8.066-4.551a.345.345 0 0 1 .323-.008l9.645 4.76 8.247-4.652v-18.57l-8.067 4.549a.342.342 0 0 1-.323.009l-9.644-4.76Z" fill="#00519D"/><path fill-rule="evenodd" clip-rule="evenodd" d="M162.048 98.485c.191 0 .346.155.346.346v19.365a.345.345 0 0 1-.691 0V98.831c0-.19.154-.346.345-.346ZM171.731 103.327c.191 0 .345.154.345.345v19.365a.345.345 0 1 1-.691 0v-19.365c0-.191.155-.345.346-.345Z" fill="#00519D"/></g><g style="mix-blend-mode:overlay" opacity=".3"><path d="M262.194 97.003a12.435 12.435 0 0 0-8.446 3.62 12.376 12.376 0 0 0-3.637 8.421 12.227 12.227 0 0 0 2.318 7.515l.122.167 8.762 11.891a1.889 1.889 0 0 0 2.437.551 1.89 1.89 0 0 0 .663-.609l7.922-11.752c1.501-2.277 2.526-4.665 2.526-7.474a12.34 12.34 0 0 0-3.733-8.823 12.379 12.379 0 0 0-8.934-3.507Zm.29 19.654a7.06 7.06 0 0 1-3.914-1.188 7.014 7.014 0 0 1-1.061-10.813 7.047 7.047 0 0 1 3.608-1.923 7.05 7.05 0 0 1 7.232 2.99 7.019 7.019 0 0 1 1.187 3.905 7.012 7.012 0 0 1-2.068 4.968 7.053 7.053 0 0 1-4.984 2.055v.006Z" fill="#31B0FF"/><path fill-rule="evenodd" clip-rule="evenodd" d="m261.986 128.559 7.922-11.752c1.501-2.277 2.527-4.665 2.527-7.474a12.321 12.321 0 0 0-3.734-8.823 12.379 12.379 0 0 0-8.934-3.507 12.435 12.435 0 0 0-8.446 3.62 12.37 12.37 0 0 0-3.636 8.421 12.22 12.22 0 0 0 2.318 7.515l.121.167 8.762 11.891a1.889 1.889 0 0 0 2.437.551 1.89 1.89 0 0 0 .663-.609Zm-11.276-12.265.003.004 8.762 11.89.002.003a1.162 1.162 0 0 0 1.496.338c.164-.089.304-.218.407-.373l.001-.002 7.919-11.747.002-.004c1.455-2.207 2.404-4.454 2.405-7.069a11.607 11.607 0 0 0-3.514-8.302 11.642 11.642 0 0 0-3.87-2.497 11.683 11.683 0 0 0-4.538-.804c-2.989.08-5.834 1.3-7.95 3.408a11.647 11.647 0 0 0-3.423 7.925v.001a11.495 11.495 0 0 0 2.18 7.067l.118.162Zm10.075 1.092-.729-.001a7.77 7.77 0 0 1-7.178-4.792 7.74 7.74 0 0 1 1.69-8.453 7.786 7.786 0 0 1 11.959 1.178 7.75 7.75 0 0 1 1.31 4.31 7.758 7.758 0 0 1-2.282 5.484 7.771 7.771 0 0 1-4.77 2.234v.04Zm-.717-.735a7.07 7.07 0 0 0 4.973-2.055 7.023 7.023 0 0 0 2.068-4.968c0-1.39-.413-2.749-1.187-3.905a7.053 7.053 0 0 0-12.77 2.53 7.029 7.029 0 0 0 2.991 7.216 7.065 7.065 0 0 0 3.914 1.188v-.006h.011Z" fill="#00519D"/></g><g style="mix-blend-mode:overlay" opacity=".3"><path d="M201.446 101.247h28.638v25.119h-28.638v-25.119Z" fill="#31B0FF"/><path fill-rule="evenodd" clip-rule="evenodd" d="M217.828 100.155h-17.717v23.663h17.717v-23.663Zm-18.445-.728v25.119h19.173v-25.12h-19.173Z" fill="#00519D"/><path fill-rule="evenodd" clip-rule="evenodd" d="M215.765 102.946h-6.068v7.281h6.068v-7.281Zm-6.796-.728v8.737h7.524v-8.737h-7.524ZM227.293 100.155h-8.737v23.663h8.737v-23.663Zm-9.465-.728v25.119h10.193v-25.12h-10.193Z" fill="#00519D"/></g><g style="mix-blend-mode:overlay" opacity=".3"><path fill="#31B0FF" d="M292.413 100.906h19.71v16.944h-19.71zM313.506 107.822v9.682h10.028v-7.089l-2.594-2.593h-7.434Z"/><circle cx="298.982" cy="122.691" r="3.804" fill="#31B0FF"/><circle cx="317.31" cy="122.691" r="3.804" fill="#31B0FF"/><path fill-rule="evenodd" clip-rule="evenodd" d="M290.684 99.523c0-.191.154-.346.345-.346h21.094c.191 0 .346.155.346.346v18.327a.345.345 0 0 1-.346.345h-21.094a.344.344 0 0 1-.345-.345V99.523Zm.691.345v17.636h20.402V99.868h-20.402Z" fill="#00519D"/><path fill-rule="evenodd" clip-rule="evenodd" d="M311.777 106.438c0-.191.155-.345.346-.345h5.73c.091 0 .179.036.244.1l4.298 4.28a.344.344 0 0 1 .101.245v7.132a.344.344 0 0 1-.345.345h-10.028a.345.345 0 0 1-.346-.345v-11.412Zm.691.346v10.72h9.337v-6.643l-4.095-4.077h-5.242ZM297.427 118.195a3.285 3.285 0 1 0 0 6.57 3.285 3.285 0 0 0 0-6.57Zm-3.977 3.285a3.977 3.977 0 1 1 7.953.001 3.977 3.977 0 0 1-7.953-.001Z" fill="#00519D"/><path fill-rule="evenodd" clip-rule="evenodd" d="M315.753 118.195a3.285 3.285 0 1 0 0 6.57 3.285 3.285 0 0 0 0-6.57Zm-3.976 3.285a3.976 3.976 0 1 1 7.953 0 3.976 3.976 0 1 1-7.953 0Z" fill="#00519D"/></g><g style="mix-blend-mode:overlay" opacity=".3"><path d="M341.169 106.093v19.364l8.582-4.841 9.808 4.841 8.582-4.841v-19.364l-8.582 4.841-9.808-4.841-8.582 4.841Z" fill="#31B0FF"/><path fill-rule="evenodd" clip-rule="evenodd" d="M348.198 98.53c.1-.056.221-.06.323-.009l9.644 4.76 8.423-4.751a.347.347 0 0 1 .516.301v19.365a.347.347 0 0 1-.176.301l-8.582 4.841a.348.348 0 0 1-.323.009l-9.644-4.76-8.423 4.751a.346.346 0 0 1-.516-.301v-19.365c0-.125.068-.24.176-.301l8.582-4.841Zm.181.692-8.247 4.652v18.571l8.066-4.551a.345.345 0 0 1 .323-.008l9.644 4.76 8.247-4.652v-18.57l-8.066 4.549a.342.342 0 0 1-.323.009l-9.644-4.76Z" fill="#00519D"/><path fill-rule="evenodd" clip-rule="evenodd" d="M348.431 98.485c.191 0 .346.155.346.346v19.365a.345.345 0 0 1-.692 0V98.831c0-.19.155-.346.346-.346ZM358.113 103.327c.191 0 .346.154.346.345v19.365a.346.346 0 0 1-.691 0v-19.365c0-.191.154-.345.345-.345Z" fill="#00519D"/></g><g style="mix-blend-mode:overlay" opacity=".3"><path d="M449.052 97.003a12.43 12.43 0 0 0-8.445 3.62 12.371 12.371 0 0 0-3.637 8.421 12.22 12.22 0 0 0 2.318 7.515l.121.167 8.762 11.891c.178.247.414.447.686.584a1.894 1.894 0 0 0 2.415-.642l7.921-11.752c1.501-2.277 2.527-4.665 2.527-7.474a12.321 12.321 0 0 0-3.734-8.823 12.379 12.379 0 0 0-8.934-3.507Zm.29 19.654a7.057 7.057 0 0 1-6.506-4.343 7.014 7.014 0 0 1 1.531-7.658 7.051 7.051 0 0 1 7.679-1.522 7.053 7.053 0 0 1 3.161 2.589 7.019 7.019 0 0 1 .649 6.594 7.029 7.029 0 0 1-3.817 3.801 7.05 7.05 0 0 1-2.697.533v.006Z" fill="#31B0FF"/><path fill-rule="evenodd" clip-rule="evenodd" d="m448.845 128.559 7.922-11.752c1.5-2.277 2.526-4.665 2.526-7.474a12.321 12.321 0 0 0-3.733-8.823 12.383 12.383 0 0 0-8.935-3.507 12.432 12.432 0 0 0-8.445 3.62 12.371 12.371 0 0 0-3.637 8.421 12.22 12.22 0 0 0 2.318 7.515l.122.167 8.762 11.891a1.886 1.886 0 0 0 3.1-.058Zm-11.276-12.265.003.004 8.761 11.89.003.003a1.165 1.165 0 0 0 1.496.338c.164-.089.303-.218.406-.373l.002-.002 7.919-11.747.002-.004c1.454-2.207 2.404-4.454 2.404-7.069a11.589 11.589 0 0 0-.917-4.505 11.625 11.625 0 0 0-6.467-6.294 11.678 11.678 0 0 0-4.537-.804c-2.99.08-5.835 1.3-7.95 3.408a11.638 11.638 0 0 0-3.423 7.925v.001a11.495 11.495 0 0 0 2.18 7.067l.118.162Zm10.074 1.092-.728-.001a7.783 7.783 0 0 1-7.179-4.792 7.756 7.756 0 0 1-.44-4.483 7.76 7.76 0 0 1 2.13-3.97 7.785 7.785 0 0 1 11.959 1.178 7.742 7.742 0 0 1 1.311 4.31 7.74 7.74 0 0 1-2.283 5.484 7.767 7.767 0 0 1-4.77 2.234v.04Zm-.716-.735a7.065 7.065 0 0 0 4.973-2.055 7.036 7.036 0 0 0 2.068-4.968 7.02 7.02 0 0 0-1.188-3.905 7.053 7.053 0 0 0-12.77 2.53 7.023 7.023 0 0 0 2.992 7.216 7.057 7.057 0 0 0 3.913 1.188v-.006h.012Z" fill="#00519D"/></g><g style="mix-blend-mode:overlay" opacity=".3"><path d="M388.305 101.247h28.638v25.119h-28.638v-25.119Z" fill="#31B0FF"/><path fill-rule="evenodd" clip-rule="evenodd" d="M404.687 100.155H386.97v23.663h17.717v-23.663Zm-18.445-.728v25.119h19.173v-25.12h-19.173Z" fill="#00519D"/><path fill-rule="evenodd" clip-rule="evenodd" d="M402.624 102.946h-6.068v7.281h6.068v-7.281Zm-6.796-.728v8.737h7.524v-8.737h-7.524ZM414.152 100.155h-8.737v23.663h8.737v-23.663Zm-9.465-.728v25.119h10.193v-25.12h-10.193Z" fill="#00519D"/></g><g style="mix-blend-mode:overlay" opacity=".3"><path fill="#31B0FF" d="M479.271 100.906h19.71v16.944h-19.71z"/><circle cx="485.841" cy="122.691" r="3.804" fill="#31B0FF"/><path fill-rule="evenodd" clip-rule="evenodd" d="M477.542 99.523c0-.191.155-.346.346-.346h21.093c.191 0 .346.155.346.346v18.327a.345.345 0 0 1-.346.345h-21.093a.345.345 0 0 1-.346-.345V99.523Zm.692.345v17.636h20.401V99.868h-20.401Z" fill="#00519D"/><path fill-rule="evenodd" clip-rule="evenodd" d="M484.285 118.195a3.285 3.285 0 1 0 0 6.57 3.285 3.285 0 0 0 0-6.57Zm-3.977 3.285a3.977 3.977 0 1 1 7.953.001 3.977 3.977 0 0 1-7.953-.001Z" fill="#00519D"/></g></g><defs><radialGradient id="c" cx="0" cy="0" r="1" gradientUnits="userSpaceOnUse" gradientTransform="matrix(0 93.8891 -186 0 308 194.889)"><stop stop-color="#2BC866"/><stop offset="0" stop-color="#2BC866"/><stop offset="1" stop-color="#2BC866" stop-opacity="0"/></radialGradient><radialGradient id="d" cx="0" cy="0" r="1" gradientUnits="userSpaceOnUse" gradientTransform="matrix(24.30029 -90.6899 179.6622 48.14034 413.962 28.83)"><stop stop-color="#2BC866"/><stop offset="0" stop-color="#2BC866"/><stop offset="1" stop-color="#2BC866" stop-opacity="0"/></radialGradient><linearGradient id="b" x1="523.5" y1="-8" x2="523.5" y2="280" gradientUnits="userSpaceOnUse"><stop stop-color="#0068CA"/><stop offset="1" stop-color="#00519D"/></linearGradient><clipPath id="a"><path d="M0 4a4 4 0 0 1 4-4h481a4 4 0 0 1 4 4v128a4 4 0 0 1-4 4H4a4 4 0 0 1-4-4V4Z" fill="#fff"/></clipPath></defs></svg>
